<svg width="479" height="555" viewBox="0 0 479 555" fill="none" xmlns="http://www.w3.org/2000/svg">
<path d="M93.756 191.789C101.605 134.839 151.708 93.3549 209.122 96.2684L227.374 97.1946C257.45 98.7209 286.501 86.0498 305.844 62.9681C324.09 41.1953 351.04 28.6181 379.447 28.6181H397.476C408.092 28.6181 418.554 26.0816 427.992 21.2199L465.154 2.07589C473.45 -2.198 483.628 0.306503 488.993 7.9423C491.352 11.2992 492.54 15.3393 492.374 19.4388L479.63 334.118V539.118C479.63 547.402 472.915 554.118 464.63 554.118H86.3952C65.5421 554.118 45.0121 548.965 26.6304 539.118C0.564571 527.874 -8.22882 495.281 8.64455 472.452L20.1664 456.864C24.3613 451.188 30.2907 447.034 37.0574 445.029C53.833 440.058 63.6558 422.692 59.2724 405.753L36.9445 319.474C30.8806 296.041 41.5185 271.486 62.7603 259.883C77.4593 251.854 87.4794 237.33 89.7661 220.738L93.756 191.789Z" fill="url(#paint0_linear_2406_7)"/>
<defs>
<linearGradient id="paint0_linear_2406_7" x1="41.1304" y1="281.713" x2="679.51" y2="577.073" gradientUnits="userSpaceOnUse">
<stop stop-color="#FF0000"/>
<stop offset="0.471154" stop-color="#FF7400"/>
</linearGradient>
</defs>
</svg>
